<?xml version="1.0" standalone="no"?>
<!DOCTYPE svg PUBLIC "-//W3C//DTD SVG 20010904//EN"
 "http://www.w3.org/TR/2001/REC-SVG-20010904/DTD/svg10.dtd">
<svg version="1.0" xmlns="http://www.w3.org/2000/svg"
 width="512.000000pt" height="512.000000pt" viewBox="0 0 512.000000 512.000000"
 preserveAspectRatio="xMidYMid meet">

<g transform="translate(0.000000,512.000000) scale(0.100000,-0.100000)"
fill="#000000" stroke="none">
<path d="M2410 5109 c-202 -16 -425 -80 -612 -174 -474 -238 -804 -673 -910
-1198 -30 -149 -33 -480 -5 -622 44 -222 119 -410 255 -637 61 -103 698 -1209
1369 -2380 25 -43 48 -78 53 -78 4 0 317 539 695 1198 378 658 715 1241 747
1295 111 182 184 366 230 577 19 91 22 134 22 325 0 249 -12 332 -84 546 -213
641 -793 1092 -1477 1149 -130 11 -146 11 -283 -1z m314 -1076 c168 -42 330
-174 413 -336 88 -174 82 -406 -14 -590 -44 -84 -150 -195 -234 -245 -203
-119 -455 -119 -658 0 -84 50 -190 161 -234 245 -172 329 -48 716 283 883 133
67 289 82 444 43z"/>
</g>
</svg>
